<svg xmlns="http://www.w3.org/2000/svg" enable-background="new 0 0 47.5 47.5" viewBox="0 0 47.5 47.5"><defs><clipPath id="a"><path d="M0 38h38V0H0v38Z"/></clipPath></defs><g clip-path="url(#a)" transform="matrix(1.25 0 0 -1.25 0 47.5)"><path d="m0 0 3.083-1.158-1.156-3.084s-4.55 1.004-5.259 2.114c-.709 1.11.602 2.729.602 2.729L0 0Z" transform="translate(16.356 21.125)"/><path fill="#d99e82" d="M0 0c.91-.201 0-1.613.278-2.525.191-.632-1.111-.71-1.111-.71s-.911.201-.756-1.265c.155-1.463-1.866-1.973-2.02-.507-.154 1.464 1.045 2.254.385 3.394C-4.802 1.118 0 0 0 0" transform="translate(20.967 29.875)"/><path fill="#77b255" d="M0 0c0 .199-.541.428-.707.687-.708 1.112-1.03 1.667-1.939 1.867-1.287.283-2.912-.308-4.222-1.928-.829-1.023-.947-2.174-2.259-3.793 0 0 4.199-.447 4.754-.093.556.354.758 1.265.959 2.175.2.91.686 1.264 1.04.709C-2.03-.914 0-1.575 1.075-1.802L0 0Z" transform="translate(21.634 24.184)"/><path fill="#d99e82" d="m0 0 1.245 1.41C2.188.482 3.698-.082 4.204.244 4.76.597 6.12-.66 5.01-1.37c-1.111-.709-2.23.282-3.138.482C1.281-.757.542-.392 0 0" transform="translate(19.988 23.184)"/><path fill="#b39155" d="M0 0c.808-.668.57.862 0 1.335-.806.667-2.418.668-3.224 0-.806-.667-.806-2.003 0-2.67.57-.472.806-1.335.806 0s.807 0 .807.667C-1.611 0 0 0 0 0" transform="translate(20.967 29.45)"/><path fill="#c1694f" d="M0 0h32s0-2-1-7c-.86-4.302-21-1-24.601 0C3.316-6.144 0 0 0 0" transform="translate(3 20)"/><path fill="#f4900c" d="M0 0a1 1 0 0 0-1-1h-32a1 1 0 1 0 0 2h32a1 1 0 0 0 1-1" transform="translate(36 19)"/><path fill="#55acee" d="M37 13H1V1h36v12Z"/><path fill="#ffac33" d="M0 0a.999.999 0 0 0-.707 1.707l11 11a1 1 0 1 0 1.415-1.414L.707.293A.997.997 0 0 0 0 0" transform="translate(13 10)"/><path fill="#ffcc4d" d="M0 0a2 2 0 0 0-1.414 3.414l3 3a2 2 0 1 0 2.828-2.828l-3-3A1.99 1.99 0 0 0 0 0" transform="translate(12 8)"/></g></svg>